<?xml version="1.0" encoding="UTF-8"?>
<svg id="Layer_1" data-name="Layer 1" xmlns="http://www.w3.org/2000/svg" viewBox="0 0 300 287.5">
  <path d="M149.87,135.79c.58.13.4-.08.56-.32.87-1.35,1.6-3.36,2.4-4.85,9.26-17.3,20.97-34.28,33.07-49.71,18.54-23.65,51.86-60.86,83.18-64.62,28.43-3.42,26.59,25.48,25.35,44.86-1.25,19.45-2.84,40.22-5.54,59.49-1.61,11.52-4.37,20.64-11.62,29.89-15.49,19.76-42.83,24.56-66.63,21.79l10.5,2.62c19.81,5.6,44.12,18.03,42.24,42.23-1.31,16.8-18.81,34.61-31.9,43.87-39.04,27.64-62.5-4.59-75.8-38.9-1.59-4.11-3.15-10.64-5.05-14.21-.14-.26-.22-.71-.63-.61-2.1,4.81-3.54,9.91-5.44,14.82-11.06,28.56-31.8,62.62-67.47,44.08-13.41-6.97-30.98-23.54-37.05-37.47-12.37-28.37,12.32-45.93,36.37-53l13.2-3.43-9.87.76h-5.77c-24.32-.79-47.73-10.89-57.93-34.1-5.79-13.18-6.65-34.91-7.96-49.56-1.19-13.3-2.58-27.46-3.01-40.75-.69-21.2,6.57-36.66,30.53-31.52,30.72,6.59,62.09,42.13,80.63,66.17,12.63,16.38,24.49,33.93,33.67,52.49Z"/>
</svg>

