<?xml version="1.0" encoding="UTF-8"?>
<svg id="Layer_1" data-name="Layer 1" xmlns="http://www.w3.org/2000/svg" viewBox="0 0 300 300">
  <path d="M295.47,130.64c1.98-17.86-.53-43.88-8.55-60.88-42.59-90.3-164.17-83.39-197.5,2-6.95,17.81-6.54,37.99-15.54,54.84-9.16,17.13-19.61,31.6-26.6,50.18-1.3,3.45-1.98,11.83-5.63,13.14-1.15.41-4.52-.35-5.25-.07-3.99,1.52-7.75,7.44-4.52,11.42-5.1-.03-11.93,2.24-13.41,7.53-.33,1.17,1.05,2.39.7,3.15-.68,1.46-8.21.72-11.43,7.34-1.47,3.02-.15,4.65-.53,6.26-.35,1.47-1.97,2.5-2.26,3.77-1.72,7.66-.81,15.4.51,23.18.74,4.4,3.66,8.86,1.86,13.13-.58,1.38-2.24,2.58-2.4,3.11-.29.95.57,1.74.54,2.61-.02.6-.9,1.21-.83,1.8.14,1.22,4.31,9.72,5.24,10.85,4.13,5.07,12.51,9.98,18.9,10.52,2.21.19,5.63-2.96,8.09-3.13,6.31-.44,19.37,3.64,26.3,4.25,7.49.66,8.77-3.55,14.23-5.72.68-.27,5.16-.22,6.19-.67,4.43-1.92,7.87-6.53,6.48-11.37,4.27.61,7.64-.74,9.96-4.33.93-1.43,1.93-6.43,2.24-6.74.51-.51,6.18-.35,8.42-2.54.55-.54,2.84-4.04,3.05-4.65.44-1.31-1.09-2.44-.7-3.02.93-1.35,8.31-2.69,10.39-3.47,19.41-7.34,36.7-18.73,55.06-28.05,12.35-6.27,21.15-5.2,33.97-8.44,41.62-10.51,78.13-41.88,83.03-86.01ZM180.4,32.74c16.81-.72,40.56,8.86,53.9,19.6,17.5,14.09,29.66,33.47,33.67,55.06.73,3.91,2.39,10.06-3,10.98-6.56,1.11-6.23-7.11-7.14-11.2-8.33-37.59-40.5-63.69-78.61-64.69-5.74-1.97-4.9-9.49,1.18-9.75ZM127.62,158.96l-2.54-2.3c-1.21-6.29-.82-13.27-.26-19.58,2.24-25.18,12.43-47.65,40.16-51.33,41.33-5.48,68.45,44.01,42.7,74.47-2.32,2.75-6.11,4.63-9.04,1.04-3.35-4.1,1.3-7.55,3.32-10.56,16.38-24.45-4.39-59-34.93-55.15-25.54,3.22-31.81,26.67-32.66,48.82-.13,3.32.33,7.11.1,10.27-.29,3.89-3.23,5.22-6.84,4.31ZM169.9,184.97c-3.53-2.6-6.74-8.45-8.28-12.46-5.86-15.33-2.51-35.46,7.91-47.28,1.56-1.76,4.3-2.73,6.57-1.3,1.98,1.25,3.21,3.39,2.67,5.63-.43,1.78-3.07,4.35-4.22,6.08-7.07,10.66-8.82,29.11-.17,40.25.56.72,1.42,1.27,2.07,2.1,3.86,4.86-1.84,10.47-6.56,6.99ZM216.21,178.67c-14.71,13.43-40.2,1.1-39.49-19.74.3-8.99,4.48-11.99,9.26-18.39,8.56-11.44-1.97-29.04-16.82-25.92-19.13,4.02-21.07,31.14-17.3,47.16,1.39,5.91,2.19,6.5,5.33,11.45,2.53,3.99-1.89,8.67-6.24,6.87-.88-.95-2.17-1.77-3-2.72-2.42-2.79-4.68-9.67-5.6-13.27-5.55-21.82-.75-54.74,24.97-59.34,22.09-3.95,38.82,20.1,28.66,38.98-3.54,6.58-10.54,9.69-9.17,18.6,1.85,12.07,16.12,15.47,23.98,7.45,12.09-12.33,17.7-32.59,13.92-49.97-7.24-33.31-43.03-51.42-73.25-39.55-20.65,8.11-32.86,27.14-33.93,49.22-1.94,3.98-7.99,3.48-9.33-1.09-.98-3.37,1.29-13.89,2.34-17.39,13.85-46.44,74.58-60.56,109.22-21.92,23.23,25.92,20.43,67.65-3.56,89.55ZM244.46,141.49c-.08-3.6.73-7.71.6-11.57-1.38-42.61-39.77-75.92-81.99-71.55-2.33.24-8.23,1.73-9.98,1.47-5.16-.79-6.46-7.33-1.81-9.52,2.14-1.01,9.41-1.81,12.08-2.01,21.55-1.61,43.73,5.35,60.99,19.66,20.78,17.22,32.23,44.35,30.52,70.11-.09,1.36-.23,4.72-.69,5.79-2.24,5.26-9.59,3.37-9.72-2.37Z"/>
</svg>