<?xml version="1.0" encoding="UTF-8"?>
<svg id="Layer_1" data-name="Layer 1" xmlns="http://www.w3.org/2000/svg" viewBox="0 0 300 300">
  <path d="M45.68,37.71c1.17-.65,2.3-1.4,3.52-1.92,3.58-1.56,7.27-1.94,11.07-.74,1.75.55,3.53,1.03,5.31,1.49,5.87,1.52,10.97.1,15.34-4.05,1.82-1.72,3.54-3.58,5.48-5.15,3.07-2.5,7.84-2.23,10.71.52,2.91,2.79,5.63,5.78,8.63,8.48,4.38,3.97,3.65,9.8,0,13.41-8.58,8.48-17.08,17.05-25.61,25.58-10.31,10.31-20.61,20.61-30.92,30.92-1.96,1.96-4.28,3.12-7.12,2.93-1.96-.13-3.75-.74-5.17-2.15-3.15-3.1-6.34-6.16-9.4-9.36-3.26-3.42-3.12-8.53.19-11.96,1.62-1.68,3.38-3.23,4.93-4.97,3.5-3.92,4.72-8.54,3.69-13.68-.43-2.15-1.12-4.24-1.72-6.34-1.36-4.69-.73-9.08,1.95-13.18.11-.17.19-.35.33-.6-.28.09-.47.15-.66.22,3.15-3.15,6.3-6.3,9.46-9.46v.02ZM50.5,51.51c-2.68,2.68-2.7,6.36-.03,9.04,2.59,2.6,6.56,2.57,9.18-.09,2.41-2.45,2.38-6.42-.07-8.88-2.66-2.67-6.45-2.71-9.07-.07h0Z"/>
  <path d="M25.14,106.82c2.06,2.06,4.13,3.98,6.03,6.07,5.85,6.38,16.86,7.03,23.86,0,11.04-11.08,22.11-22.12,33.17-33.18,8.26-8.26,16.51-16.52,24.78-24.76,6.68-6.66,6.42-17.7.02-23.63-2.12-1.96-4.1-4.08-6.22-6.2l.65-.65c5-5,10-10.02,15.02-15.01,5.42-5.38,12.64-6.94,19.51-3.95,1.96.85,3.82,2.21,5.35,3.73,29,28.91,57.94,57.87,86.89,86.83,18.89,18.89,37.75,37.83,56.71,56.65,5.01,4.97,6.74,13.28,3.26,20.06-.83,1.61-1.92,3.18-3.2,4.45-37.61,37.67-75.25,75.31-112.89,112.95-2.79,2.79-6.32,4.81-10.2,5.52-6.64,1.23-11.57-1.23-15.59-5.25-24.52-24.52-49.05-49.05-73.57-73.57-23.05-23.05-46.11-46.08-69.13-69.15-5.26-5.27-6.94-11.51-4.48-18.68.9-2.64,2.59-4.78,4.51-6.73,5-5.06,10.05-10.07,15.08-15.1.1-.1.22-.18.44-.37v-.02ZM148.04,115.04h0c8.48-8.48,16.97-16.94,25.43-25.45.57-.57,1.09-1.34,1.29-2.11.53-1.96-.39-3.84-2.18-4.84-1.67-.93-3.56-.61-5.03.85-4.58,4.57-9.15,9.15-13.73,13.73-12.39,12.39-24.77,24.76-37.15,37.16-1.83,1.83-1.86,4.41-.12,6.14,1.81,1.79,4.25,1.74,6.11-.12,8.45-8.46,16.91-16.91,25.37-25.37h0ZM124.05,91.48h0c8.51-8.5,17.02-16.99,25.49-25.53.63-.64,1.17-1.56,1.32-2.43.35-1.99-.75-3.67-2.71-4.56-1.55-.72-3.25-.34-4.64,1.05-4.03,4.03-8.05,8.05-12.08,12.08-12.86,12.86-25.71,25.71-38.57,38.57-2.03,2.03-2.11,4.52-.3,6.38,1.41,1.46,4.26,1.77,6.3-.3,8.32-8.48,16.77-16.84,25.18-25.24v-.02ZM172.12,139.67h0c4.75-4.76,9.5-9.5,14.25-14.26,3.77-3.77,7.57-7.53,11.33-11.32,1.35-1.36,1.6-3.27.73-4.88-1.48-2.77-4.64-3.22-6.9-.96-16.81,16.81-33.61,33.61-50.43,50.42-.15.15-.3.3-.45.45-1.73,1.96-1.7,4.52.06,6.18,1.72,1.62,4.37,1.48,6.14-.31,8.36-8.49,16.83-16.89,25.26-25.31h0ZM118.5,190.68c-2.91.02-5.39-.02-7.86.05-2.56.08-4.41,1.98-4.4,4.37.02,2.31,1.89,4.24,4.37,4.28,4,.06,8,.07,11.99,0,2.46-.05,4.06-1.72,4.21-4.16.03-.53.05-1.06.05-1.59.02-5.7.05-11.39.04-17.09,0-2.02-.02-4.04-.17-6.04-.13-1.77-1.27-2.92-2.86-3.5-1.57-.57-3.05-.23-4.31.97-1.01.96-1.33,2.13-1.33,3.46.02,3.33,0,6.65.06,9.98.04,3.07.14,6.14.22,9.29h0ZM93.86,166.74c-1.73-.02-3.01-.05-4.28-.05s-2.62-.03-3.93.06c-2.36.17-4.09,2.07-4.04,4.37.05,2.27,1.88,4.2,4.19,4.23,3.87.06,7.74.02,11.62.02.77,0,1.55-.13,2.25-.47,2.52-1.21,2.46-2.96,2.47-4.71.02-4.1,0-8.2,0-12.31,0-3.71,0-7.43-.05-11.14-.02-1.86-1.07-3.18-2.75-3.78-1.64-.58-3.17-.26-4.46,1.08-1.06,1.09-1.32,2.38-1.32,3.79,0,5.38,0,10.76.03,16.14,0,.88.15,1.76.26,2.79h0ZM70.53,142.78c-.96-.04-1.72-.1-2.5-.1-1.88,0-3.76-.06-5.63.06-2.24.15-3.93,2.15-3.87,4.42.05,2.11,1.83,4.12,3.93,4.15,4.25.08,8.49.08,12.73-.03.86-.02,1.8-.58,2.53-1.13,2.48-1.83.46-5.37,2.07-7.31,1.13-1.37,1.6-3.19.86-4.81-2.51-5.54-1.05-11.66-1.85-17.52-.03-.19-.13-.36-.28-.47-4.14-3.02-7.99-.62-7.99,3.4,0,2.83.06,5.66.06,8.49,0,3.54-.03,7.07-.06,10.85h0Z"/>
</svg>