<?xml version="1.0" encoding="UTF-8"?>
<svg id="Layer_1" data-name="Layer 1" xmlns="http://www.w3.org/2000/svg" viewBox="0 0 300 300">
  <path d="M17.16,206.43c-5.13-5.27-12.64-9.11-14.36-17.29-3.21-15.19,6.22-20.78,6.31-31.84.13-15.19-14.44-21.71-7.48-39.49,4.05-10.34,14.11-12.36,18-20.95,5.29-11.67-.87-24.35,7.6-36.04,6.42-8.86,21.29-8.63,30.06-15.55,9.36-7.39,8.81-19.77,19.32-26.11,14.16-8.55,23.53-.42,37.63-3.26,9.06-1.83,15.76-14.35,27.4-15.75,15.21-1.82,23.22,12.5,35.66,14.19,11.96,1.63,19.12-7.88,33.79-1.12,12.56,5.79,13.59,19.97,23.99,26.34s24.04,2.27,32.45,16.42c5.7,9.61,1.42,19.45,6.47,29.09,5.08,9.69,20.34,13.75,22.88,25.83,3.08,14.64-6.83,20.9-6.27,33.51.69,15.56,15,21.75,6.4,40.01-4.27,9.06-16.03,12.13-18.63,21.96s1.14,18.73-4.33,29.59c-6.79,13.48-19.91,10.1-30.03,17.19-10.52,7.37-10.17,21.22-20.95,27.73-14.16,8.55-23.53.42-37.63,3.26-10.67,2.15-16.75,16.65-31.44,15.82-12.72-.72-20.2-12.59-31.6-14.23-10.99-1.58-18.38,6.48-31.51,2.06-14.73-4.96-15.12-20.46-26.28-27.32-11.46-7.04-31.92-2.48-35.59-23-3.15-17.57,2.37-16.45-11.84-31.05Z"/>
</svg>