<?xml version="1.0" encoding="UTF-8"?>
<svg xmlns="http://www.w3.org/2000/svg" viewBox="0 0 98 96" width="98" height="96" aria-hidden="true">
  <path d="M48.854 0C21.839 0 0 22 0 49.217c0 21.756 13.993 40.172 33.405 46.69 2.427.49 3.316-1.059 3.316-2.362 0-1.141-.08-5.052-.08-9.127-13.59 2.934-16.42-5.867-16.42-5.867-2.184-5.704-5.42-7.17-5.42-7.17-4.448-3.015.324-3.015.324-3.015 4.934.326 7.523 5.053 7.523 5.053 4.367 7.496 11.404 5.386 14.235 4.082.404-3.178 1.699-5.386 3.074-6.606-10.839-1.141-22.243-5.386-22.243-24.283 0-5.386 1.94-9.78 5.014-13.2-.485-1.222-2.184-6.275.486-13.038 0 0 4.207-1.304 13.59 5.052a46.999 46.999 0 0 1 12.356-1.63c4.207 0 8.574.571 12.356 1.63 9.383-6.275 13.59-5.052 13.59-5.052 2.67 6.763.97 11.816.485 13.038 3.155 3.42 5.015 7.814 5.015 13.2 0 18.897-11.404 23.06-22.324 24.283 1.78 1.548 3.316 4.49 3.316 9.126 0 6.606-.08 11.93-.08 13.59 0 1.304.89 2.853 3.316 2.364 19.412-6.52 33.406-24.936 33.406-46.692C97.707 22 75.868 0 48.854 0z"/>
</svg>

