<?xml version="1.0" encoding="UTF-8"?>
<svg id="Layer_1" data-name="Layer 1" xmlns="http://www.w3.org/2000/svg" viewBox="0 0 280.89 280.89">
  <path d="M80.55,8.3c38.59-2.55,79.52,1.62,118.35-.17,40.39,2.19,71.5,33.53,73.77,73.82,2.25,39.97-1.26,82.41-.51,122.56-4.25,37.82-35.59,66.06-73.28,68.18-39.97,2.25-82.41-1.26-122.55-.51-37.47-4.17-66.45-35.7-68.2-73.26,1.62-38.51-2.08-78.67,0-116.99C10.26,42.23,40.8,10.93,80.55,8.3ZM79.02,32.3c-24.6,2.73-45.35,23.72-46.91,48.59-2.45,39.07,1.88,80.69.03,120.03,2.63,25.12,22.64,45.07,47.75,47.75h121.02c25.21-2.69,45.42-22.97,47.75-48.26v-120c-2.33-25.15-22.2-45.37-47.3-48.2l-122.35.09Z"/>
  <path d="M135.19,72.65c54.34-4.25,91.32,54.9,63.84,102.14-25.87,44.48-91.35,44.51-117.26,0-25.28-43.42,3.64-98.25,53.42-102.14ZM109.43,171.9c23.8,23.46,64.96,12.35,73.49-19.86,9.51-35.89-26.54-67.03-60.58-51.9-28.11,12.5-34.88,50.12-12.92,71.76Z"/>
  <path d="M208.2,54.24c20.33-2.98,25.53,25.58,7.26,30.75-21.84,6.18-27.99-27.71-7.26-30.75Z"/>
</svg>