<?xml version="1.0" encoding="UTF-8"?>
<svg id="Layer_1" data-name="Layer 1" xmlns="http://www.w3.org/2000/svg" viewBox="0 0 300 285">
  <path d="M295.62,96.33c-.03-3.86-4.42-9.15-7.84-11.26-19.55-12.03-39.16-23.91-58.77-35.8-23.64-14.33-47.27-28.66-70.82-43.18-6.37-3.93-11.04-3.11-17.04.57-23.31,14.3-46.67,28.5-70.06,42.62-18.85,11.37-37.71,22.7-56.64,33.88-7.62,4.5-10.52,9.6-10.44,20.01.41,53.6.16,107.2.15,160.8,0,1.22,0,2.43,0,3.65,0,4.53.31,9.06.49,13.89h291.32c0-5.9,0-11.66,0-17.53.02-56.5.1-112.13-.35-167.64ZM289.29,91.27c.23.69.46,1.38.69,2.06-38.44,23.2-76.89,46.41-117.16,70.72,26.75,27.58,52.29,53.91,77.82,80.24-.08.39-.16.77-.25,1.16C170.32,194.73,90.25,144,7.01,91.27h282.28Z"/>
</svg>