<?xml version="1.0" encoding="UTF-8"?>
<svg id="Layer_1" data-name="Layer 1" xmlns="http://www.w3.org/2000/svg" viewBox="0 0 500 500">
  <path d="M7.64,275.5c0-16.68,0-33.37,0-50.05.46-1.5,1.18-2.97,1.34-4.5C22.15,99.88,135.23-10.95,284.31,10.94c95.43,14.01,162.03,69.05,193.33,159.99,31.1,90.35,12.48,173.41-51.9,245.06-13.1,14.58-28.15,27.07-45.19,37.74-2.04-2.97-3.73-5.35-5.34-7.78-60.19-91.06-120.53-182.03-180.34-273.35-6.13-9.35-12.72-13.33-23.62-12.26-9.83.97-12.18,2.76-12.2,12.78-.08,33.35-.15,66.71-.19,100.06-.03,25.82-.24,51.65.25,77.47.07,3.82,2.64,9.63,5.67,11.02,13.49,6.22,23.26-.56,23.32-15.25.17-41.15.31-82.31.48-123.46,0-2.17.28-4.35.44-6.56,58.09,82.75,115.81,164.97,173.78,247.55-.98.58-2.87,2.1-5.03,2.9-17.11,6.31-34.09,13.05-51.48,18.49-10.41,3.26-21.48,4.41-32.25,6.51h-50.05c-1.48-.48-2.93-1.22-4.45-1.41-101.5-13-182.85-86.27-206.19-185.9-2.25-9.6-3.82-19.35-5.7-29.04ZM336.06,329.29c.77-1.31,1.23-1.72,1.23-2.14.03-54.61.07-109.23-.09-163.84,0-2.39-1.57-6.65-2.92-6.86-6.95-1.12-14.29-2.34-21.01-1.04-2.47.48-5.11,7.74-5.16,11.94-.45,37.66-.39,75.33-.3,113,0,3.05.69,6.54,2.28,9.06,8.29,13.2,16.97,26.15,25.96,39.88Z"/>
</svg>