<?xml version="1.0" encoding="UTF-8"?>
<svg id="Layer_1" data-name="Layer 1" xmlns="http://www.w3.org/2000/svg" viewBox="0 0 300 300">
  <path d="M150.79,297.23h-1.4L23.08,224.3c-.73-.75-1.02-1.93-1.08-2.96l.03-143.17c.15-1.3.59-2.28,1.67-3.06,5.33-2.48,10.74-6.92,16.02-9.25,1.01-.45,1.95-.66,3.04-.22l122.06,70.42c.91.71,1.5,1.68,1.75,2.81l.02,38.59c-.17,1.43-1.37,2.03-2.71,1.83l-101.15-58.34c-.88-.57-2.17-.15-2.5.85l-.14,78.13c.06,1.05.6,1.99,1.43,2.61l87.17,50.38c1.03.5,2.14.5,3.18,0,21.55-12.14,42.67-25.08,64.26-37.15,1.94-1.09,4.02-2.73,6.33-2.41,11.55,6.15,22.81,12.99,34.14,19.55,1.13.91,1.08,2.59-.12,3.39l-105.68,60.92Z"/>
  <path d="M149.16,2.83c.59-.1,1.25-.06,1.85,0l125.84,72.6c.62.63,1.12,1.44,1.15,2.36v120.21c-.12,1.7-2.08,2.52-3.46,1.52l-31.69-18.32c-1.45-.82-2.38-2.22-2.41-3.91v-77.92c-.01-.91-.51-1.73-1.13-2.36l-87.98-50.8c-1.32-.34-2.05-.02-3.17.53-9.76,4.79-19.27,11.78-29,16.79-2.31,1.06-3.24.56-5.33-.53-10.62-5.54-20.86-12.54-31.45-18.2-1.37-1.03-1.16-2.86.28-3.73L148.28,3.18c.27-.14.58-.29.89-.34Z"/>
</svg>