<?xml version="1.0" encoding="UTF-8"?>
<svg id="Layer_1" data-name="Layer 1" xmlns="http://www.w3.org/2000/svg" viewBox="0 0 500 500">
  <defs>
    <style>
      .cls-1 {
        fill: #e7c2d6;
      }
    </style>
  </defs>
  <path class="cls-1" d="M496.39,66.51c-.02-.38.04-.8.45-.88.29-.05.26.3.23.53-.23.12-.45.23-.68.35Z"/>
  <g>
    <path d="M93.83,391.33c-.11-19.02,3.05-37.62,7.26-56.08.68-2.98,1.38-5.97,2.31-8.89.68-2.15.25-3.04-2.05-3.75-12.94-3.97-25.6-8.71-37.8-14.63-13.28-6.45-25.88-14.01-36.57-24.29-9.9-9.52-17.71-20.43-20.02-34.47-2.27-13.8,1.34-26.17,9.14-37.48,9.54-13.83,22.78-23.35,37.14-31.52,16.73-9.52,34.67-16.09,53.03-21.57,2.21-.66,3-1.24,2.48-3.85-3.39-16.8-5.71-33.75-5.17-50.94.46-14.44,2.4-28.66,8.83-41.84,8.89-18.22,23.14-28.62,43.77-29.51,15.24-.66,29.16,4,42.58,10.6,18.28,8.98,34.28,21.23,49.25,34.88,1.94,1.77,2.8,1.06,4.31-.29,16.41-14.78,33.92-27.98,54.23-37.04,12.81-5.71,26.11-9.33,40.28-8.03,16.87,1.55,29.6,9.92,38.2,24.43,7.1,11.99,9.87,25.26,11.02,38.97,1.67,19.99-.96,39.62-4.76,59.15-.41,2.09.06,2.7,2,3.28,18.57,5.53,36.69,12.22,53.62,21.8,14.28,8.08,27.25,17.7,36.96,31.27,13.77,19.25,12.97,43.86-1.89,62.35-12.3,15.29-28.19,25.64-45.52,34.1-12.27,6-25.04,10.75-38.09,14.75-1.77.54-2.29,1.16-1.76,3.08,3.57,12.94,6.26,26.07,7.9,39.38,2.71,22.06,3.37,44.07-4.04,65.5-4.8,13.86-12.82,25.18-26.41,31.83-11.2,5.47-22.98,6.13-34.97,3.9-20.44-3.78-37.95-13.89-54.51-25.88-11.41-8.26-22.1-17.37-31.99-27.4-2-2.03-3.21-1.83-5.14.08-16.38,16.19-34.12,30.67-54.52,41.57-14.7,7.85-30.11,13.53-47.16,12.61-19.58-1.05-33.66-10.69-42.44-28.06-7.63-15.09-9.58-31.37-9.5-48.02ZM250.31,320.11c5.83.25,13.1-.26,20.39-.51,7.49-.26,14.96-.82,22.45-1.13,1.84-.08,2.85-.94,3.74-2.38,4.1-6.66,8.34-13.23,12.37-19.93,10.46-17.41,19.86-35.38,28.38-53.81.9-1.95.81-3.53-.2-5.36-2.5-4.53-4.81-9.17-7.28-13.72-10.77-19.79-22.62-38.9-35.6-57.33-.78-1.11-1.62-1.82-3.06-1.89-8.01-.36-16.02-.96-24.04-1.16-19.34-.47-38.66-.11-57.97,1.11-1.88.12-3.04.72-4.13,2.28-15.62,22.27-29.61,45.51-42.15,69.64-1.41,2.71-1.57,4.96-.24,7.71,11.81,24.49,24.66,48.38,39.43,71.24,1.79,2.78,3.89,3.79,6.89,3.91,13.19.54,26.37,1.39,41.05,1.32ZM116.67,391.24c-.12,13.12,1.59,24.23,5.19,33.59,5.56,14.44,15.52,20.92,30.63,19.7,7.65-.62,14.86-3.02,21.83-6.16,22.31-10.06,40.71-25.46,58.07-42.31,1.3-1.27,1.53-2.15.19-3.65-14.29-16.01-27.42-32.95-39.59-50.62-.85-1.24-1.76-1.94-3.33-1.98-1.78-.05-3.56-.39-5.34-.57-17.54-1.8-34.9-4.69-52.12-8.43-6.14-1.33-6.11-1.43-7.64,4.79-4.49,18.28-7.76,36.73-7.9,55.63ZM383.46,390.1c-.17-18.77-3.84-38.23-8.65-57.54-.64-2.58-1.53-3.06-4.13-2.45-19.86,4.65-39.98,7.76-60.27,9.72-1.71.17-2.58.98-3.48,2.28-11.98,17.31-24.83,33.95-38.84,49.67-1.76,1.97-1.72,3.02.13,4.83,9.99,9.79,20.52,18.92,31.96,26.95,13.92,9.77,28.51,18.12,45.73,20.82,13.01,2.04,24.08-3.17,30.13-14.87,6.2-11.99,7.33-24.99,7.42-39.41ZM29.16,241.49c-.12,2.59.49,5.05,1.29,7.46,3.65,11,11.75,18.43,20.64,25.01,17.03,12.6,36.48,20.21,56.46,26.66,2.57.83,3.39.14,4.22-2.26,6.7-19.37,14.29-38.39,23.32-56.81.76-1.55.84-2.88.14-4.5-7.6-17.67-14.17-35.72-19.53-54.2-.7-2.41-1.62-2.65-3.81-2-15.83,4.72-31.26,10.47-45.79,18.38-10.62,5.78-20.57,12.54-28.42,21.94-4.91,5.89-8.35,12.43-8.51,20.31ZM470.99,240.8c-.28-1.54-.53-3.86-1.15-6.08-2.88-10.17-9.91-17.35-17.85-23.62-19.09-15.09-41.45-23.41-64.39-30.45-1.9-.58-2.56.14-3.08,1.95-5.4,18.59-12.01,36.75-19.65,54.54-.64,1.5-.64,2.75.07,4.21,9.07,18.53,16.72,37.65,23.46,57.14.77,2.22,1.5,2.98,4,2.19,11.1-3.52,22.01-7.53,32.52-12.51,13.35-6.33,25.97-13.79,36.04-24.89,5.6-6.17,9.6-13.11,10.04-22.47ZM156.6,55.24c-8.44-.41-16.43,4.56-22.04,13.83-2.94,4.86-4.54,10.23-5.77,15.7-2.89,12.81-2.75,25.79-1.64,38.77.73,8.52,2.23,16.94,3.72,25.36.41,2.32,1.07,3.34,3.88,2.61,5.51-1.42,11.15-2.36,16.76-3.36,13.51-2.41,27.12-4.13,40.76-5.54,2.18-.23,3.11-1.46,4.17-2.88,10.86-14.46,22.41-28.36,34.88-41.46,1.99-2.1,1.81-3.18-.26-4.97-13.07-11.3-26.67-21.83-42.22-29.56-9.33-4.64-18.99-8.26-32.23-8.49ZM373.77,107.67c-.12-2.11-.32-5.26-.47-8.43-.4-8.62-1.97-17.01-5.2-25.01-4.41-10.92-13.12-19.63-27.78-18.94-6.98.33-13.57,1.96-19.99,4.47-19.7,7.72-36.16,20.39-51.9,34.15-1.62,1.42-1.46,2.35-.06,3.82,12.15,12.82,23.61,26.26,34.05,40.5,2.42,3.3,5.12,4.45,8.84,4.81,18.3,1.74,36.44,4.53,54.39,8.49,2.46.54,3.1-.08,3.53-2.27,2.58-13.4,4.33-26.88,4.61-41.59ZM229.42,342.39c-2.05,0-3.54-.05-5.01.02-.68.03-1.61-.46-1.98.43-.34.8.48,1.33.89,1.89,1.86,2.56,3.76,5.11,5.68,7.63,6.03,7.89,12.45,15.46,18.88,23.04,1.66,1.95,2.83,2.11,4.32-.02.78-1.12,1.73-2.13,2.63-3.16,7.65-8.76,14.93-17.81,21.78-27.21.47-.64,1.47-1.31,1.06-2.14-.5-1.03-1.7-.48-2.58-.46-5.81.14-11.61.4-17.42.49-9.61.15-19.23.24-28.26-.51ZM148.69,266.62c-5.85,13.1-10.69,25.91-15.24,38.83-.68,1.92.45,2.37,2.01,2.67,8.49,1.63,16.96,3.39,25.46,4.95,4.61.84,9.28,1.36,14.71,2.14-9.79-16.08-18.41-31.89-26.94-48.59ZM351.4,266.72c-8.56,16.54-17.01,32.44-26.56,47.93.66.2.95.39,1.22.36,13.18-1.7,26.23-4.16,39.21-6.99,1.76-.38,1.82-1.43,1.3-2.84-1.01-2.78-1.92-5.59-2.97-8.35-3.77-9.95-7.47-19.92-12.2-30.1ZM323.33,167.58c9.87,14.79,18.35,29.37,26.98,44.65,5.01-12.36,8.66-24.25,12.35-36.12.65-2.1-.82-2.1-1.94-2.34-4.22-.91-8.46-1.81-12.71-2.54-7.88-1.35-15.74-2.88-24.68-3.65ZM176.35,167.98c-2.73-.6-4.98.21-7.25.51-10.04,1.33-19.98,3.27-29.9,5.31-1.35.28-2.29.6-1.69,2.5,3.5,11.19,6.89,22.4,11.29,33.28.26.64.17,1.73,1.07,1.77,1.01.04,1.13-1.11,1.52-1.8,5.64-10.04,11.31-20.06,17.57-29.73,2.5-3.86,4.88-7.81,7.39-11.84ZM274.47,140.26c0-.38.08-.65-.01-.77-7.24-9.1-14.9-17.83-22.86-26.3-1.4-1.48-2.17-.99-3.26.23-4.7,5.29-9.5,10.5-14.17,15.81-3.03,3.45-5.89,7.04-9.34,11.17,17.09-.81,33.36-.65,49.64-.15Z"/>
    <path d="M295.74,241.53c-.02,25.2-20.61,45.65-45.93,45.6-25.02-.05-45.45-20.64-45.44-45.77.02-25.21,20.6-45.64,45.93-45.59,25.02.05,45.46,20.64,45.44,45.77Z"/>
  </g>
</svg>