<?xml version="1.0" encoding="UTF-8"?>
<svg id="Layer_1" data-name="Layer 1" xmlns="http://www.w3.org/2000/svg" viewBox="0 0 268.64 268.64">
  <path d="M7.32,261.31l21.63-65.25C-11.01,128.12,19.78,40.64,94.31,14.56c92.98-32.55,186.6,49.88,163.44,146.04-19.24,79.92-110.44,117.72-182.55,79.74l-67.89,20.98ZM39.21,230.36l38.75-11.89c82.91,53.11,190.82-26.65,157.14-121.51C194.11-18.49,18.51,20.54,31.93,143.39c1.95,17.82,9.5,34.38,19.11,49.22-.3,5.09-13.35,36.06-11.83,37.74Z"/>
  <path d="M104.55,75.84c4.32,3.56,9.16,23.69,13,29.39.41,6.3-11.05,13.52-10.72,17.08.28,3.1,10.33,16.01,13,18.83,5.48,5.78,26.08,21.3,33.68,20.03,4.79-.8,10.93-15.33,15.58-15.44,1.94-.05,3.25.78,4.95,1.34,4.15,1.37,21,9.08,24.07,11.45,4.47,3.47-.53,17.34-4.1,21.21-15.16,16.43-37.99,8.56-55.47.99-26.73-11.58-66.38-51.64-62.88-82.85.7-6.22,6.61-17.45,11.89-20.89,3.61-2.35,13.8-3.78,17.01-1.14Z"/>
</svg>