<?xml version="1.0" encoding="UTF-8"?>
<svg id="Layer_1" data-name="Layer 1" xmlns="http://www.w3.org/2000/svg" viewBox="0 0 300 219.5">
  <path d="M282.7,196.43c-7.13,7.85-16.34,11.91-26.98,12.36-2.03.08-4.09-.09-6.13-.02-41.03,1.42-82.13,2.42-123.21,1.77-27.42-.43-54.86-.56-82.23-1.76-19.67-.86-35.14-15.21-36.56-35.01-.98-13.56-1.12-27.78-1.57-41.41-.81-24.67-.18-48.69.97-73.35.33-6.99.21-15.22,2.17-21.88,3.27-11.1,12.41-20.62,23.36-24.35,6.95-2.37,14.6-2.14,21.88-2.37,25.53-.8,51.12-1.25,76.71-1.56,38.6-.46,77.21.55,115.72,1.77,13.11.42,22.3.03,32.74,9.25,9.35,8.26,12.02,16.96,12.7,29.1.95,16.83,1.63,33.62,1.97,50.47.43,21.02-.57,41.93-1.58,62.88-.67,13.86-.06,23.18-9.97,34.09ZM122.14,64.65v90.01l.4.21c3.23-2.14,6.62-4.03,9.92-6.06,20.38-12.54,40.93-25,61.12-37.86.27-.17,1.71-1.09,1.71-1.24l-73.14-45.05Z"/>
</svg>